<svg width="17" height="15" viewBox="0 0 17 15" fill="none" xmlns="http://www.w3.org/2000/svg">
<path d="M12.1023 0C10.2872 0 8.78806 1.6859 8.18181 2.48158C7.57555 1.6859 6.07643 0 4.26135 0C1.91163 0 0 2.16032 0 4.81534C0 6.26388 0.574964 7.61384 1.58136 8.53771C1.596 8.56303 1.61399 8.58633 1.63496 8.60729L7.94111 14.9004C8.00769 14.9667 8.09459 15 8.18181 15C8.26903 15 8.35625 14.9667 8.42285 14.9001L14.9387 8.38657L15.006 8.32131C15.0593 8.27104 15.1119 8.22009 15.1708 8.15486C15.1954 8.13057 15.2157 8.10325 15.2314 8.07362C15.9621 7.17874 16.3636 6.02449 16.3636 4.81534C16.3636 2.16032 14.452 0 12.1023 0ZM14.6641 7.6901C14.6547 7.70109 14.6461 7.71273 14.6384 7.72471C14.6065 7.76134 14.5715 7.79362 14.5369 7.8266L8.18149 14.1773L2.19461 8.20245C2.17531 8.16448 2.14833 8.12987 2.11538 8.10091C1.20416 7.30523 0.681807 6.10772 0.681807 4.81534C0.681807 2.53617 2.28749 0.681839 4.26135 0.681839C6.21293 0.681839 7.8785 3.22734 7.89516 3.25297C8.02102 3.44738 8.3426 3.44738 8.46846 3.25297C8.48511 3.22734 10.1507 0.681839 12.1023 0.681839C14.0761 0.681839 15.6818 2.5362 15.6818 4.81534C15.6818 5.88933 15.3202 6.9104 14.6641 7.6901Z" fill="#FE3E17"/>
</svg>
