<svg width="20" height="20" viewBox="0 0 20 20" fill="none" xmlns="http://www.w3.org/2000/svg">
<path d="M6.97098 15.7257C5.79073 15.7257 4.8338 16.6825 4.8338 17.8629C4.8338 19.0432 5.79073 19.9999 6.97098 19.9999C8.15124 19.9999 9.10816 19.0432 9.10816 17.8629C9.10652 16.6832 8.15058 15.7274 6.97098 15.7257ZM6.97098 19.1585C6.2553 19.1585 5.6752 18.5784 5.6752 17.8629C5.6752 17.1472 6.2553 16.5671 6.97098 16.5671C7.68666 16.5671 8.26677 17.1472 8.26677 17.8629C8.26644 18.5784 7.6865 19.1584 6.97098 19.1585Z" fill="#142F64"/>
<path d="M15.9696 15.7257C14.7894 15.7257 13.8326 16.6825 13.8326 17.8629C13.8326 19.0432 14.7894 19.9999 15.9696 19.9999C17.1501 19.9999 18.1068 19.0432 18.1068 17.8629C18.1052 16.6832 17.1494 15.7274 15.9696 15.7257ZM15.9696 19.1585C15.2541 19.1585 14.674 18.5784 14.674 17.8629C14.674 17.1472 15.2541 16.5671 15.9696 16.5671C16.6853 16.5671 17.2654 17.1472 17.2654 17.8629C17.2651 18.5784 16.6852 19.1584 15.9696 19.1585Z" fill="#142F64"/>
<path d="M18.8725 3.93784H4.62771L4.3163 2.10353C4.11203 0.887773 3.05864 -0.00193823 1.8258 3.37893e-05H1.11061C0.878239 3.37893e-05 0.689911 0.188362 0.689911 0.420732C0.689911 0.653102 0.878239 0.84143 1.11061 0.84143H1.8258C2.64731 0.838144 3.34968 1.43189 3.48345 2.24239L5.17035 12.1835C5.37462 13.3991 6.42817 14.289 7.66085 14.287H17.2613C17.4935 14.287 17.682 14.0985 17.682 13.8663C17.682 13.6339 17.4935 13.4456 17.2613 13.4456H7.66512C6.84361 13.4487 6.14124 12.8552 6.00764 12.0447L5.86877 11.237H15.2965C16.3994 11.2393 17.375 10.5229 17.703 9.47002L19.2721 4.48474C19.3134 4.35705 19.2899 4.21737 19.209 4.11022C19.1301 4.00324 19.0056 3.93931 18.8725 3.93784ZM16.8994 9.21333C16.6794 9.91553 16.0281 10.3929 15.2924 10.3913H5.72564L4.77068 4.77496H18.2961L16.8994 9.21333Z" fill="#142F64"/>
</svg>
