<svg width="59" height="35" viewBox="0 0 59 35" fill="none" xmlns="http://www.w3.org/2000/svg">
<path d="M46.6562 11.7812C45.2021 11.7799 43.7613 12.0573 42.4116 12.5983L38.6671 5.10938H43.7968C44.0496 5.10938 44.2921 5.20979 44.4708 5.38854C44.6496 5.56728 44.75 5.80972 44.75 6.0625C44.75 6.31528 44.6496 6.55772 44.4708 6.73646C44.2921 6.91521 44.0496 7.01562 43.7968 7.01562C43.5441 7.01562 43.3016 7.11604 43.1229 7.29479C42.9441 7.47353 42.8437 7.71597 42.8437 7.96875C42.8437 8.22153 42.9441 8.46397 43.1229 8.64271C43.3016 8.82146 43.5441 8.92188 43.7968 8.92188C44.5552 8.92188 45.2825 8.62062 45.8187 8.08438C46.355 7.54815 46.6562 6.82085 46.6562 6.0625C46.6562 5.30415 46.355 4.57685 45.8187 4.04062C45.2825 3.50438 44.5552 3.20312 43.7968 3.20312H37.125C36.9625 3.20313 36.8027 3.24467 36.6608 3.32379C36.5189 3.40291 36.3996 3.51699 36.3142 3.65519C36.2288 3.7934 36.1801 3.95114 36.1728 4.11345C36.1655 4.27575 36.1999 4.43722 36.2725 4.58254L37.4891 7.01562H22.1386L19.6387 2.25H20.9218C21.1746 2.25 21.4171 2.14958 21.5958 1.97084C21.7746 1.79209 21.875 1.54966 21.875 1.29688C21.875 1.04409 21.7746 0.80166 21.5958 0.622914C21.4171 0.444168 21.1746 0.34375 20.9218 0.34375H15.2031C14.9503 0.34375 14.7079 0.444168 14.5291 0.622914C14.3504 0.80166 14.25 1.04409 14.25 1.29688C14.25 1.54966 14.3504 1.79209 14.5291 1.97084C14.7079 2.14958 14.9503 2.25 15.2031 2.25H17.4862L20.607 8.19917L17.5753 13.0497C15.3939 11.9278 12.9095 11.5369 10.489 11.9349C8.06849 12.3329 5.84006 13.4986 4.13273 15.2599C2.4254 17.0213 1.32965 19.285 1.00724 21.7167C0.684837 24.1485 1.15287 26.6194 2.34224 28.7648C3.5316 30.9102 5.37928 32.6164 7.61248 33.6313C9.84568 34.6463 12.346 34.9163 14.7445 34.4016C17.1429 33.8868 19.3122 32.6145 20.9322 30.7725C22.5522 28.9305 23.537 26.6164 23.7412 24.1719H25.8082C25.9612 24.7617 26.2535 25.3062 26.6606 25.7595L24.8945 28.4088C24.8195 28.5212 24.7693 28.6483 24.7472 28.7816C24.7251 28.9149 24.7316 29.0514 24.7663 29.1821C24.801 29.3127 24.863 29.4344 24.9484 29.5392C25.0337 29.644 25.1403 29.7295 25.2612 29.79L27.1674 30.7431C27.3932 30.8538 27.6537 30.8708 27.892 30.7903C28.1302 30.7099 28.3271 30.5385 28.4396 30.3136C28.552 30.0887 28.5711 29.8284 28.4925 29.5895C28.4139 29.3506 28.2441 29.1524 28.02 29.0382L27.0788 28.5678L28.2452 26.8182C29.0521 27.1003 29.9304 27.1027 30.7389 26.8252C31.5474 26.5478 32.2391 26.0064 32.7028 25.2883C33.1664 24.5702 33.3751 23.717 33.2953 22.866C33.2154 22.0149 32.8517 21.2155 32.2626 20.5961L38.9382 9.91515L40.7073 13.4536C38.3492 14.8919 36.5916 17.1352 35.7593 19.7689C34.9269 22.4026 35.0761 25.2485 36.1793 27.7807C37.2825 30.3129 39.2651 32.3601 41.7607 33.5439C44.2562 34.7277 47.0959 34.9681 49.7549 34.2206C52.4139 33.473 54.7124 31.7882 56.2255 29.4775C57.7386 27.1668 58.3641 24.3864 57.9862 21.6503C57.6084 18.9142 56.2528 16.4074 54.1701 14.5932C52.0874 12.779 49.4183 11.7802 46.6562 11.7812ZM21.6328 10.1547L26.9847 20.3572C26.4104 20.8613 26.0005 21.5261 25.8082 22.2656H23.7412C23.6057 20.6542 23.13 19.0899 22.3455 17.6759C21.561 16.2618 20.4855 15.0303 19.19 14.0624L21.6328 10.1547ZM28.9717 22.2656H27.8518C28.0189 21.9762 28.2591 21.7358 28.5484 21.5686C28.8376 21.4013 29.1658 21.313 29.5 21.3125C29.522 21.3125 29.5435 21.315 29.5654 21.3158L28.9717 22.2656ZM21.8273 22.2656H14.0634L18.1748 15.6873C19.1984 16.4784 20.0501 17.4696 20.678 18.6006C21.306 19.7316 21.697 20.9786 21.8273 22.2656ZM12.3437 32.75C10.9075 32.7509 9.48958 32.4273 8.19601 31.8032C6.90243 31.1791 5.76661 30.2708 4.87344 29.1461C3.98026 28.0213 3.35282 26.7093 3.03801 25.3079C2.72319 23.9066 2.72914 22.4523 3.05541 21.0536C3.38168 19.6549 4.01983 18.348 4.92217 17.2306C5.82452 16.1132 6.96772 15.2142 8.26636 14.6007C9.565 13.9872 10.9855 13.6752 12.4217 13.6879C13.8579 13.7006 15.2726 14.0377 16.5602 14.674L11.5355 22.7136C11.4453 22.8579 11.3954 23.0237 11.3909 23.1937C11.3865 23.3638 11.4276 23.532 11.5101 23.6808C11.5926 23.8296 11.7134 23.9536 11.86 24.04C12.0065 24.1263 12.1736 24.1719 12.3437 24.1719H21.8273C21.5882 26.5218 20.4862 28.6995 18.7345 30.284C16.9828 31.8685 14.7057 32.7471 12.3437 32.75ZM31.4062 23.2188C31.4056 23.7241 31.2046 24.2087 30.8472 24.566C30.4899 24.9234 30.0054 25.1244 29.5 25.125C29.459 25.125 29.4191 25.1214 29.3787 25.1188L30.293 23.7475C30.296 23.7431 30.2982 23.7384 30.301 23.734C30.3037 23.7296 30.3061 23.7275 30.3082 23.7239L31.1826 22.325C31.3296 22.5999 31.4064 22.907 31.4062 23.2188ZM30.6481 19.5833C30.0128 19.3823 29.3358 19.3519 28.6849 19.4949L23.1386 8.92188H37.3115L30.6481 19.5833ZM46.6562 32.75C44.591 32.7509 42.5813 32.0806 40.9301 30.8402C39.2788 29.5998 38.0753 27.8564 37.5009 25.8726C36.9264 23.8888 37.0122 21.7721 37.7452 19.8413C38.4781 17.9105 39.8187 16.2702 41.5649 15.1673L45.8038 23.645C45.8592 23.758 45.9363 23.8588 46.0309 23.9418C46.1254 24.0248 46.2355 24.0882 46.3547 24.1284C46.4739 24.1687 46.5998 24.1849 46.7253 24.1762C46.8508 24.1676 46.9733 24.1341 47.0858 24.0779C47.1984 24.0216 47.2986 23.9436 47.3808 23.8484C47.4631 23.7532 47.5256 23.6427 47.5649 23.5232C47.6043 23.4037 47.6195 23.2776 47.6099 23.1522C47.6002 23.0268 47.5658 22.9045 47.5087 22.7925L43.2685 14.3118C44.5746 13.815 45.9741 13.6115 47.3677 13.7157C48.7613 13.82 50.1149 14.2294 51.3326 14.9151C52.5503 15.6007 53.6023 16.5458 54.4141 17.6833C55.2259 18.8208 55.7777 20.1229 56.0302 21.4973C56.2827 22.8718 56.2299 24.285 55.8755 25.6368C55.521 26.9885 54.8737 28.2458 53.9792 29.3196C53.0847 30.3933 51.9651 31.2572 50.6996 31.85C49.4341 32.4428 48.0537 32.7501 46.6562 32.75Z" fill="#142F64"/>
</svg>
