<svg width="25" height="25" viewBox="0 0 25 25" fill="none" xmlns="http://www.w3.org/2000/svg">
<path d="M8.71374 19.6572C7.23842 19.6572 6.04227 20.8532 6.04227 22.3287C6.04227 23.804 7.23842 25 8.71374 25C10.1891 25 11.3852 23.804 11.3852 22.3287C11.3832 20.854 10.1882 19.6593 8.71374 19.6572ZM8.71374 23.9482C7.81914 23.9482 7.09401 23.2231 7.09401 22.3287C7.09401 21.4341 7.81914 20.709 8.71374 20.709C9.60834 20.709 10.3335 21.4341 10.3335 22.3287C10.3331 23.2231 9.60814 23.948 8.71374 23.9482Z" fill="#FE3E17"/>
<path d="M19.962 19.6572C18.4867 19.6572 17.2908 20.8532 17.2908 22.3287C17.2908 23.804 18.4867 25 19.962 25C21.4376 25 22.6335 23.804 22.6335 22.3287C22.6315 20.854 21.4367 19.6593 19.962 19.6572ZM19.962 23.9482C19.0676 23.9482 18.3425 23.2231 18.3425 22.3287C18.3425 21.4341 19.0676 20.709 19.962 20.709C20.8566 20.709 21.5818 21.4341 21.5818 22.3287C21.5814 23.2231 20.8564 23.948 19.962 23.9482Z" fill="#FE3E17"/>
<path d="M23.5906 4.92226H5.78465L5.39538 2.62937C5.14004 1.10968 3.82331 -0.00246094 2.28225 4.08965e-06H1.38827C1.09781 4.08965e-06 0.862396 0.235414 0.862396 0.525877C0.862396 0.81634 1.09781 1.05175 1.38827 1.05175H2.28225C3.30914 1.04764 4.1871 1.78982 4.35432 2.80295L6.46294 15.2294C6.71828 16.7488 8.03522 17.8612 9.57607 17.8587H21.5767C21.8669 17.8587 22.1025 17.6231 22.1025 17.3329C22.1025 17.0424 21.8669 16.807 21.5767 16.807H9.58141C8.55452 16.8109 7.67656 16.0689 7.50955 15.0558L7.33597 14.0462H19.1207C20.4992 14.049 21.7188 13.1536 22.1288 11.8375L24.0902 5.60589C24.1417 5.44628 24.1123 5.27167 24.0113 5.13774C23.9127 5.00401 23.757 4.9241 23.5906 4.92226ZM21.1243 11.5166C20.8493 12.3944 20.0352 12.9911 19.1155 12.9891H7.15705L5.96336 5.96866H22.8702L21.1243 11.5166Z" fill="#FE3E17"/>
</svg>
